name p3_grf_mean_speed_1.4
datacolumns 13
datarows 57
range 0.0000000000 0.5600000000
endheader
time	grf_x_l_mean	grf_x_l_var	grf_y_l_mean	grf_y_l_var	grf_z_l_mean	grf_z_l_var	grf_x_r_mean	grf_x_r_var	grf_y_r_mean	grf_y_r_var	grf_z_r_mean	grf_z_r_var
0.0000000000	178.8539629447	1.0000000000	985.4595803403	1.0000000000	0.0000000000	0.0000000000	10.4956279243	1.0000000000	11.1217982216	1.0000000000	0.0000000000	0.0000000000
0.0100000000	191.8196724577	1.0000000000	960.1462077159	1.0000000000	0.0000000000	0.0000000000	15.9846024103	1.0000000000	50.1316732694	1.0000000000	0.0000000000	0.0000000000
0.0200000000	203.2552469757	1.0000000000	919.4401225667	1.0000000000	0.0000000000	0.0000000000	17.7001925690	1.0000000000	114.8521485095	1.0000000000	0.0000000000	0.0000000000
0.0300000000	211.8842876348	1.0000000000	862.0751543326	1.0000000000	0.0000000000	0.0000000000	8.0436455785	1.0000000000	200.2316701576	1.0000000000	0.0000000000	0.0000000000
0.0400000000	215.0303916127	1.0000000000	787.0298606895	1.0000000000	0.0000000000	0.0000000000	-16.7702996733	1.0000000000	296.3540218881	1.0000000000	0.0000000000	0.0000000000
0.0500000000	211.1036382827	1.0000000000	695.3008121742	1.0000000000	0.0000000000	0.0000000000	-49.7032055929	1.0000000000	396.8167140992	1.0000000000	0.0000000000	0.0000000000
0.0600000000	199.5179757380	1.0000000000	590.6325685209	1.0000000000	0.0000000000	0.0000000000	-82.1364113520	1.0000000000	495.7755483142	1.0000000000	0.0000000000	0.0000000000
0.0700000000	178.5921504114	1.0000000000	478.0854060350	1.0000000000	0.0000000000	0.0000000000	-111.1940716793	1.0000000000	586.4726792289	1.0000000000	0.0000000000	0.0000000000
0.0800000000	149.2871411770	1.0000000000	364.8954926534	1.0000000000	0.0000000000	0.0000000000	-135.4433158326	1.0000000000	665.4003941149	1.0000000000	0.0000000000	0.0000000000
0.0900000000	116.0316303313	1.0000000000	260.3150489990	1.0000000000	0.0000000000	0.0000000000	-153.6141817248	1.0000000000	733.6469156287	1.0000000000	0.0000000000	0.0000000000
0.1000000000	83.1984703838	1.0000000000	171.5512711123	1.0000000000	0.0000000000	0.0000000000	-167.2427140598	1.0000000000	793.6445091652	1.0000000000	0.0000000000	0.0000000000
0.1100000000	54.8581351245	1.0000000000	101.7585050289	1.0000000000	0.0000000000	0.0000000000	-176.5725358111	1.0000000000	846.0618385695	1.0000000000	0.0000000000	0.0000000000
0.1200000000	33.2077531777	1.0000000000	51.4414011128	1.0000000000	0.0000000000	0.0000000000	-180.3144847064	1.0000000000	890.4138511682	1.0000000000	0.0000000000	0.0000000000
0.1300000000	17.6834779996	1.0000000000	19.0595630913	1.0000000000	0.0000000000	0.0000000000	-179.1536068917	1.0000000000	925.7992542928	1.0000000000	0.0000000000	0.0000000000
0.1400000000	8.0200058655	1.0000000000	1.3809611334	1.0000000000	0.0000000000	0.0000000000	-173.0368739266	1.0000000000	951.5713015870	1.0000000000	0.0000000000	0.0000000000
0.1500000000	0.0000000000	1.0000000000	0.0000000000	1.0000000000	0.0000000000	0.0000000000	-162.1957079490	1.0000000000	968.0470643031	1.0000000000	0.0000000000	0.0000000000
0.1600000000	0.0000000000	1.0000000000	0.0000000000	1.0000000000	0.0000000000	0.0000000000	-148.3415320478	1.0000000000	975.2078528243	1.0000000000	0.0000000000	0.0000000000
0.1700000000	0.0000000000	1.0000000000	0.0000000000	1.0000000000	0.0000000000	0.0000000000	-132.6029968428	1.0000000000	971.7790009553	1.0000000000	0.0000000000	0.0000000000
0.1800000000	0.0000000000	1.0000000000	0.0000000000	1.0000000000	0.0000000000	0.0000000000	-116.0725231127	1.0000000000	957.1053769300	1.0000000000	0.0000000000	0.0000000000
0.1900000000	0.0000000000	1.0000000000	0.0000000000	1.0000000000	0.0000000000	0.0000000000	-100.5639034138	1.0000000000	931.9500092235	1.0000000000	0.0000000000	0.0000000000
0.2000000000	0.0000000000	1.0000000000	0.0000000000	1.0000000000	0.0000000000	0.0000000000	-86.4687570141	1.0000000000	898.0050489499	1.0000000000	0.0000000000	0.0000000000
0.2100000000	0.0000000000	1.0000000000	0.0000000000	1.0000000000	0.0000000000	0.0000000000	-73.7799405731	1.0000000000	858.0844334039	1.0000000000	0.0000000000	0.0000000000
0.2200000000	0.0000000000	1.0000000000	0.0000000000	1.0000000000	0.0000000000	0.0000000000	-62.9317960416	1.0000000000	815.8770749720	1.0000000000	0.0000000000	0.0000000000
0.2300000000	0.0000000000	1.0000000000	0.0000000000	1.0000000000	0.0000000000	0.0000000000	-53.3534985883	1.0000000000	774.9220607533	1.0000000000	0.0000000000	0.0000000000
0.2400000000	0.0000000000	1.0000000000	0.0000000000	1.0000000000	0.0000000000	0.0000000000	-44.6041070107	1.0000000000	737.6766165898	1.0000000000	0.0000000000	0.0000000000
0.2500000000	0.0000000000	1.0000000000	0.0000000000	1.0000000000	0.0000000000	0.0000000000	-36.7335391933	1.0000000000	705.5879369951	1.0000000000	0.0000000000	0.0000000000
0.2600000000	0.0000000000	1.0000000000	0.0000000000	1.0000000000	0.0000000000	0.0000000000	-29.4783039010	1.0000000000	679.4998162431	1.0000000000	0.0000000000	0.0000000000
0.2700000000	0.0000000000	1.0000000000	0.0000000000	1.0000000000	0.0000000000	0.0000000000	-22.7604818097	1.0000000000	659.6517665088	1.0000000000	0.0000000000	0.0000000000
0.2800000000	0.0000000000	1.0000000000	0.0000000000	1.0000000000	0.0000000000	0.0000000000	-16.7484758629	1.0000000000	645.7050153384	1.0000000000	0.0000000000	0.0000000000
0.2900000000	0.0000000000	1.0000000000	0.0000000000	1.0000000000	0.0000000000	0.0000000000	-11.2539453392	1.0000000000	637.1989043854	1.0000000000	0.0000000000	0.0000000000
0.3000000000	0.0000000000	1.0000000000	0.0000000000	1.0000000000	0.0000000000	0.0000000000	-6.2219411904	1.0000000000	633.4884069452	1.0000000000	0.0000000000	0.0000000000
0.3100000000	0.0000000000	1.0000000000	0.0000000000	1.0000000000	0.0000000000	0.0000000000	-1.5055023581	1.0000000000	633.8406219096	1.0000000000	0.0000000000	0.0000000000
0.3200000000	0.0000000000	1.0000000000	0.0000000000	1.0000000000	0.0000000000	0.0000000000	3.3005089017	1.0000000000	637.8124746006	1.0000000000	0.0000000000	0.0000000000
0.3300000000	0.0000000000	1.0000000000	0.0000000000	1.0000000000	0.0000000000	0.0000000000	8.2188282687	1.0000000000	645.0676787477	1.0000000000	0.0000000000	0.0000000000
0.3400000000	0.0000000000	1.0000000000	0.0000000000	1.0000000000	0.0000000000	0.0000000000	13.4431831492	1.0000000000	655.2261385074	1.0000000000	0.0000000000	0.0000000000
0.3500000000	0.0000000000	1.0000000000	0.0000000000	1.0000000000	0.0000000000	0.0000000000	19.1894246432	1.0000000000	668.3311747659	1.0000000000	0.0000000000	0.0000000000
0.3600000000	0.0000000000	1.0000000000	0.0000000000	1.0000000000	0.0000000000	0.0000000000	25.3649523924	1.0000000000	684.7252799925	1.0000000000	0.0000000000	0.0000000000
0.3700000000	1.6804190774	1.0000000000	0.1986056249	1.0000000000	0.0000000000	0.0000000000	32.0024103809	1.0000000000	704.2404376651	1.0000000000	0.0000000000	0.0000000000
0.3800000000	1.4529049141	1.0000000000	1.0535641138	1.0000000000	0.0000000000	0.0000000000	39.2038727259	1.0000000000	726.2665094683	1.0000000000	0.0000000000	0.0000000000
0.3900000000	1.1540778529	1.0000000000	1.7221912769	1.0000000000	0.0000000000	0.0000000000	46.8769795430	1.0000000000	750.4016826729	1.0000000000	0.0000000000	0.0000000000
0.4000000000	0.8696263501	1.0000000000	2.0800893356	1.0000000000	0.0000000000	0.0000000000	55.2539963278	1.0000000000	776.3149274578	1.0000000000	0.0000000000	0.0000000000
0.4100000000	0.6210810404	1.0000000000	2.2426653360	1.0000000000	0.0000000000	0.0000000000	64.4349480383	1.0000000000	803.3523196147	1.0000000000	0.0000000000	0.0000000000
0.4200000000	0.3699370292	1.0000000000	2.2315662166	1.0000000000	0.0000000000	0.0000000000	74.4231355423	1.0000000000	830.8291333677	1.0000000000	0.0000000000	0.0000000000
0.4300000000	0.1680783707	1.0000000000	1.8397732176	1.0000000000	0.0000000000	0.0000000000	85.3564659112	1.0000000000	857.8702570278	1.0000000000	0.0000000000	0.0000000000
0.4400000000	0.0742931651	1.0000000000	0.7362966890	1.0000000000	0.0000000000	0.0000000000	97.1612064514	1.0000000000	883.4198854574	1.0000000000	0.0000000000	0.0000000000
0.4500000000	0.0000000000	1.0000000000	0.0000000000	1.0000000000	0.0000000000	0.0000000000	109.6749153689	1.0000000000	906.6025673863	1.0000000000	0.0000000000	0.0000000000
0.4600000000	0.0000000000	1.0000000000	0.0000000000	1.0000000000	0.0000000000	0.0000000000	122.9017786523	1.0000000000	926.4849115916	1.0000000000	0.0000000000	0.0000000000
0.4700000000	0.0000000000	1.0000000000	0.0000000000	1.0000000000	0.0000000000	0.0000000000	136.6989999894	1.0000000000	941.6889281438	1.0000000000	0.0000000000	0.0000000000
0.4800000000	0.0000000000	1.0000000000	0.0000000000	1.0000000000	0.0000000000	0.0000000000	150.8983238871	1.0000000000	950.6122962347	1.0000000000	0.0000000000	0.0000000000
0.4900000000	0.0000000000	1.0000000000	0.0000000000	1.0000000000	0.0000000000	0.0000000000	165.4648078602	1.0000000000	951.4985342779	1.0000000000	0.0000000000	0.0000000000
0.5000000000	7.1891842038	1.0000000000	24.6330941064	1.0000000000	0.0000000000	0.0000000000	180.1605764446	1.0000000000	942.2723981155	1.0000000000	0.0000000000	0.0000000000
0.5100000000	7.0574154487	1.0000000000	73.6643970678	1.0000000000	0.0000000000	0.0000000000	194.4412686620	1.0000000000	920.8223969213	1.0000000000	0.0000000000	0.0000000000
0.5200000000	1.0311060716	1.0000000000	150.2199603247	1.0000000000	0.0000000000	0.0000000000	207.4370369540	1.0000000000	885.2546094349	1.0000000000	0.0000000000	0.0000000000
0.5300000000	-15.3233756089	1.0000000000	248.8658835582	1.0000000000	0.0000000000	0.0000000000	217.5021216372	1.0000000000	833.7028290430	1.0000000000	0.0000000000	0.0000000000
0.5400000000	-42.4463074771	1.0000000000	358.0806196380	1.0000000000	0.0000000000	0.0000000000	222.3891339775	1.0000000000	764.5544251963	1.0000000000	0.0000000000	0.0000000000
0.5500000000	-74.4221979030	1.0000000000	466.2530314449	1.0000000000	0.0000000000	0.0000000000	220.1133886963	1.0000000000	677.7420742185	1.0000000000	0.0000000000	0.0000000000
0.5600000000	-104.4939417844	1.0000000000	564.1550080796	1.0000000000	0.0000000000	0.0000000000	208.5806336913	1.0000000000	575.8586936713	1.0000000000	0.0000000000	0.0000000000
